<svg xmlns="http://www.w3.org/2000/svg" viewBox="0 0 32 32" width="32" height="32">
  <path fill="#3B82F6" d="M11.5 5C12.6 3.1 14.7 2 17 2c2.3 0 4.4 1.1 5.5 3 1.8-.1 3.7.5 5 1.9 1.4 1.4 2 3.2 1.9 5C30.9 13.1 32 15.2 32 17.5c0 2.3-1.1 4.4-3 5.5.1 1.8-.5 3.7-1.9 5-1.4 1.4-3.2 2-5 1.9-1.1 1.9-3.2 3-5.5 3-2.3 0-4.4-1.1-5.5-3-1.8.1-3.7-.5-5-1.9-1.4-1.4-2-3.2-1.9-5C3.1 21.9 2 19.8 2 17.5c0-2.3 1.1-4.4 3-5.5-.1-1.8.5-3.7 1.9-5C8.3 5.6 10.1 5 11.9 5.1z"/>
  <path fill="white" d="M14.5 21l-3.5-3.5c-.5-.5-.5-1.2 0-1.7.5-.5 1.2-.5 1.7 0l2.7 2.7 5.7-7.1c.4-.5 1.2-.6 1.7-.1.5.4.6 1.2.1 1.7l-6.5 8.1c-.5.6-1.4.6-1.9-.1z"/>
</svg>