<svg xmlns="http://www.w3.org/2000/svg" viewBox="0 0 100 100" width="100" height="100">
  <path fill="#3B82F6" d="M35.8 15.8C38.9 10.4 44.7 7 51 7c6.3 0 12.1 3.4 15.2 8.8 5.1-.4 10.3 1.4 14.1 5.2 3.8 3.8 5.6 9 5.2 14.1C91 38.2 94.4 44 94.4 50.3c0 6.3-3.4 12.1-8.8 15.2.4 5.1-1.4 10.3-5.2 14.1-3.8 3.8-9 5.6-14.1 5.2C63.2 90.2 57.4 93.6 51 93.6c-6.3 0-12.1-3.4-15.2-8.8-5.1.4-10.3-1.4-14.1-5.2-3.8-3.8-5.6-9-5.2-14.1C10.2 62.4 6.8 56.6 6.8 50.3c0-6.3 3.4-12.1 8.8-15.2-.4-5.1 1.4-10.3 5.2-14.1 3.8-3.8 9-5.6 14.1-5.2z"/>
  <path fill="white" d="M44.5 58.8l-9.2-9.2c-1.2-1.2-1.2-3.1 0-4.2 1.2-1.2 3.1-1.2 4.2 0l7.1 7.1 14.8-18.5c1.1-1.3 3-1.5 4.3-.4 1.3 1.1 1.5 3 .4 4.3L48.8 58.9c-1.1 1.4-3.2 1.5-4.3-.1z"/>
</svg>