<svg xmlns="http://www.w3.org/2000/svg" viewBox="0 0 120 130" width="120" height="130">
  <!-- Badge mark (centered) -->
  <path fill="#3B82F6" d="M43.5 22.5C46.3 16.3 52.7 12 60 12c7.3 0 13.7 4.3 16.5 10.5 5.5-.3 11 1.5 15 5.5 4 4 5.8 9.5 5.5 15C103.2 46.4 108 53.5 108 61.5c0 8-4.8 15.1-11 18.5.3 5.5-1.5 11-5.5 15-4 4-9.5 5.8-15 5.5C73.7 106.7 67.3 111 60 111c-7.3 0-13.7-4.3-16.5-10.5-5.5.3-11-1.5-15-5.5-4-4-5.8-9.5-5.5-15C17 76.6 12.2 69.5 12.2 61.5c0-8 4.8-15.1 11-18.5-.3-5.5 1.5-11 5.5-15 4-4 9.5-5.8 14.8-5.5z"/>
  <path fill="white" d="M53 72l-10-10c-1.3-1.3-1.3-3.3 0-4.5 1.3-1.3 3.3-1.3 4.5 0l7.7 7.7 16-20c1.2-1.4 3.2-1.6 4.6-.4 1.4 1.2 1.6 3.2.4 4.6L57.8 72.2c-1.2 1.5-3.5 1.5-4.8-.2z"/>

  <!-- Wordmark (centered below) -->
  <text x="60" y="122" text-anchor="middle" font-family="Inter, -apple-system, BlinkMacSystemFont, 'Segoe UI', sans-serif" font-weight="800" font-size="22" fill="#0A0A0A" letter-spacing="-0.5">Stamp</text>
</svg>