<svg xmlns="http://www.w3.org/2000/svg" viewBox="0 0 280 60" width="280" height="60">
  <!-- Badge mark -->
  <path fill="#3B82F6" d="M21.5 9.5C23.3 6.3 26.7 4.2 30.4 4.2c3.7 0 7.1 2.1 8.9 5.3 3-.2 6 .8 8.2 3 2.2 2.2 3.2 5.2 3 8.2 3.2 1.8 5.3 5.2 5.3 8.9 0 3.7-2.1 7.1-5.3 8.9.2 3-1 6-3 8.2-2.2 2.2-5.2 3.2-8.2 3-1.8 3.2-5.2 5.3-8.9 5.3-3.7 0-7.1-2.1-8.9-5.3-3 .2-6-.8-8.2-3-2.2-2.2-3.2-5.2-3-8.2C6.1 36.7 4 33.3 4 29.6c0-3.7 2.1-7.1 5.3-8.9-.2-3 .8-6 3-8.2 2.2-2.2 5.2-3.2 8.2-3z"/>
  <path fill="white" d="M26.7 35.3l-5.4-5.4c-.7-.7-.7-1.8 0-2.5.7-.7 1.8-.7 2.5 0l4.1 4.1 8.6-10.8c.6-.8 1.8-.9 2.5-.2.8.6.9 1.8.2 2.5l-9.9 12.4c-.7.8-1.9.9-2.6-.1z"/>

  <!-- Wordmark (white for dark backgrounds) -->
  <text x="68" y="40" font-family="Inter, -apple-system, BlinkMacSystemFont, 'Segoe UI', sans-serif" font-weight="800" font-size="32" fill="#FFFFFF" letter-spacing="-1">Stamp</text>
</svg>